<svg version="1.1" id="Systemicon"
    xmlns="http://www.w3.org/2000/svg" xmlns:xlink="http://www.w3.org/1999/xlink" x="0px" y="0px" width="172px"
    height="15px" viewBox="0 0 195.9995 17.0918" enable-background="new 0 0 195.9995 17.0918" xml:space="preserve">
    <g>
        <defs>
            <rect id="SVGID_1_" x="-0.0005" y="-0.001" width="196" height="17.0879"/>
        </defs>
        <clipPath id="SVGID_2_">
            <use xlink:href="#SVGID_1_"  overflow="visible"/>
        </clipPath>
        <path clip-path="url(#SVGID_2_)" d="M30.8628,9.9082c0,1.3193,0.2495,2.2666,0.7485,2.8423
            c0.4995,0.5762,1.3379,0.8647,2.5166,0.8647c0.4224,0,0.7866-0.0254,1.0942-0.0767v-2.1133
            c-0.2563,0.0264-0.4419,0.0386-0.5571,0.0386c-0.4482,0-0.7773-0.1182-0.9893-0.3555c-0.2109-0.2363-0.3174-0.6743-0.3174-1.3154
            V5.7412h1.8638V3.6665h-1.8638V0.729l-2.4956,0.7876v2.1499h-1.3066v2.0747h1.3066V9.9082z"/>
        <polygon clip-path="url(#SVGID_2_)" points="146.3394,11.0415 141.4819,11.0415 141.4819,0.7671 138.8696,0.7671 
            138.8696,13.4424 146.3394,13.4424 			"/>
        <path clip-path="url(#SVGID_2_)" d="M99.2144,11.6562c-0.8584,0-1.6777-0.2944-2.459-0.8838l-0.9595,1.709
            c0.9219,0.7949,2.0669,1.1909,3.437,1.1909c1.2295,0,2.1768-0.2778,2.8428-0.8354c0.665-0.5571,0.999-1.3472,0.999-2.3716
            c0-0.729-0.2051-1.3281-0.6143-1.7954c-0.4111-0.4678-1.0312-0.8096-1.8633-1.0278l-0.9414-0.2495
            c-0.6406-0.1665-0.96-0.4927-0.96-0.9795c0-0.3071,0.1084-0.5444,0.3262-0.71c0.2178-0.167,0.5312-0.25,0.9414-0.25
            c0.7168,0,1.4404,0.2373,2.1699,0.7104l0.8828-1.6904c-0.4482-0.3457-0.9561-0.605-1.5264-0.7778s-1.1689-0.2593-1.7949-0.2593
            c-1.1143,0-1.9756,0.269-2.584,0.8071c-0.6074,0.5381-0.9116,1.2871-0.9116,2.2466c0,1.5107,0.7871,2.4771,2.3618,2.9009
            l0.9795,0.2681c0.3457,0.103,0.5977,0.2246,0.7588,0.3652c0.1592,0.1411,0.2402,0.333,0.2402,0.5757
            C100.5396,11.3042,100.0972,11.6562,99.2144,11.6562"/>
        <path clip-path="url(#SVGID_2_)" d="M4.168,0.7671H0v12.6753h4.168c1.6641,0,2.9478-0.5059,3.8501-1.5176
            c0.9033-1.0112,1.354-2.4512,1.354-4.3208V6.6055c0-1.8818-0.4507-3.3262-1.354-4.3311C7.1157,1.2695,5.832,0.7671,4.168,0.7671
            M6.7607,7.5269c0,2.3945-0.8838,3.5918-2.6504,3.5918H2.6118V3.0908h1.4985c0.8828,0,1.5459,0.2949,1.9878,0.8838
            C6.54,4.563,6.7607,5.4658,6.7607,6.6821V7.5269z"/>
        <path clip-path="url(#SVGID_2_)" d="M25.7158,11.6177v1.8247h2.3623V3.6665H25.562v6.7227
            c-0.1797,0.3198-0.4067,0.5757-0.6816,0.7671c-0.2754,0.1929-0.5796,0.2886-0.9121,0.2886c-0.4355,0-0.7397-0.144-0.9126-0.4321
            c-0.1729-0.2886-0.2593-0.7393-0.2593-1.354V3.6665h-2.5156v6.2041c0,1.2549,0.2363,2.1953,0.7104,2.8223
            c0.4736,0.6279,1.1455,0.9419,2.0161,0.9419C24.2109,13.6348,25.1133,12.9619,25.7158,11.6177"/>
        <path clip-path="url(#SVGID_2_)" d="M18.5718,12.4814l-0.9985-1.6128c-0.6538,0.4736-1.377,0.7109-2.1704,0.7109
            c-0.6792,0-1.188-0.1792-1.5269-0.5381c-0.3394-0.3579-0.541-0.9277-0.605-1.709h5.4541V8.1997
            c0-1.5107-0.3394-2.6821-1.0176-3.5146c-0.6792-0.8325-1.6396-1.249-2.8813-1.249c-1.2544,0-2.2441,0.4131-2.9673,1.2393
            c-0.7231,0.8257-1.0845,1.9873-1.0845,3.4854v0.7686c0,1.4976,0.3931,2.6626,1.1807,3.4951s1.8789,1.248,3.2749,1.248
            C16.5361,13.6724,17.6494,13.2764,18.5718,12.4814 M14.8076,5.4336c0.499,0,0.8701,0.189,1.1138,0.5664
            c0.2427,0.3784,0.3838,0.958,0.4224,1.7383H13.252C13.29,6.2021,13.8086,5.4336,14.8076,5.4336"/>
        <path clip-path="url(#SVGID_2_)" d="M105.2827,9.9082c0,1.3193,0.25,2.2666,0.749,2.8423
            c0.499,0.5762,1.3369,0.8647,2.5156,0.8647c0.4229,0,0.7881-0.0254,1.0947-0.0767v-2.1133
            c-0.2559,0.0264-0.4414,0.0386-0.5566,0.0386c-0.4492,0-0.7773-0.1182-0.9893-0.3555c-0.2109-0.2363-0.3164-0.6743-0.3164-1.3154
            V5.7412h1.8623V3.6665h-1.8623V0.729l-2.4971,0.7876v2.1499h-1.3057v2.0747h1.3057V9.9082z"/>
        <path clip-path="url(#SVGID_2_)" d="M39.6968,11.6562c-0.8584,0-1.6777-0.2944-2.458-0.8838l-0.9419,1.709
            c0.9224,0.7949,2.061,1.1909,3.4189,1.1909c1.229,0,2.1797-0.2778,2.8516-0.8354c0.6724-0.5571,1.0083-1.3472,1.0083-2.3716
            c0-0.729-0.2046-1.3281-0.6143-1.7954c-0.4097-0.4678-1.0308-0.8096-1.8633-1.0278l-0.9404-0.2495
            c-0.333-0.0889-0.5796-0.2144-0.7397-0.3745c-0.1606-0.1597-0.2397-0.3608-0.2397-0.605c0-0.3071,0.1084-0.5444,0.3262-0.71
            c0.2183-0.167,0.5381-0.25,0.9604-0.25c0.7163,0,1.4404,0.2373,2.1704,0.7104l0.8638-1.6904
            c-0.4351-0.3457-0.9375-0.605-1.5073-0.7778S40.8232,3.436,40.1958,3.436c-1.1138,0-1.978,0.269-2.5928,0.8071
            s-0.9219,1.2871-0.9219,2.2466c0,0.769,0.1953,1.3896,0.5859,1.8633c0.3906,0.4741,0.9893,0.8198,1.7954,1.0376l0.9604,0.2681
            c0.3584,0.103,0.6177,0.2246,0.7778,0.3652c0.1602,0.1411,0.2402,0.333,0.2402,0.5757
            C41.041,11.3042,40.5923,11.6562,39.6968,11.6562"/>
        <path clip-path="url(#SVGID_2_)" d="M119.9526,0.7671h-4.1475v12.6753h4.1475c1.665,0,2.9482-0.5059,3.8516-1.5176
            c0.9023-1.0112,1.3535-2.4512,1.3535-4.3208V6.6055c0-1.8818-0.4512-3.3262-1.3535-4.3311
            C122.9009,1.2695,121.6177,0.7671,119.9526,0.7671 M122.5454,7.5269c0,2.3945-0.8838,3.5918-2.6504,3.5918h-1.4785V3.0908h1.4785
            c0.8848,0,1.5469,0.2949,1.9883,0.8838c0.4414,0.5884,0.6621,1.4912,0.6621,2.7075V7.5269z"/>
        <polygon clip-path="url(#SVGID_2_)" points="136.3345,13.4424 136.3345,0.7666 133.7222,0.7666 133.7222,5.876 129.6509,5.876 
            129.6509,0.7666 127.0396,0.7666 127.0396,13.4424 129.6509,13.4424 129.6509,8.1802 133.7222,8.1802 133.7222,13.4424 			"/>
        <path clip-path="url(#SVGID_2_)" d="M94.874,9.0054V8.084c0-1.4722-0.3687-2.6182-1.104-3.4375
            c-0.7363-0.8188-1.7642-1.229-3.0825-1.229c-1.332,0-2.3657,0.4102-3.1021,1.229c-0.7363,0.8193-1.104,1.9653-1.104,3.4375
            v0.9214c0,1.4727,0.3677,2.6191,1.104,3.438c0.7363,0.8193,1.7632,1.2295,3.0825,1.2295c1.3311,0,2.3657-0.4102,3.1021-1.2295
            C94.5054,11.6245,94.874,10.478,94.874,9.0054 M92.3579,8.9482c0,0.8833-0.1411,1.5264-0.4224,1.9302
            c-0.2822,0.4033-0.7041,0.605-1.2676,0.605c-0.5503,0-0.9668-0.2017-1.2485-0.605c-0.2817-0.4038-0.4219-1.0469-0.4219-1.9302
            V8.1411c0-0.8828,0.1401-1.5269,0.4219-1.9297c0.2817-0.4033,0.7046-0.605,1.2681-0.605c0.5503,0,0.9658,0.2017,1.248,0.605
            c0.2812,0.4028,0.4224,1.0469,0.4224,1.9297V8.9482z"/>
        <path clip-path="url(#SVGID_2_)" d="M67.1787,3.436c-1.2549,0-2.2446,0.4131-2.9678,1.2393
            c-0.7231,0.8257-1.085,1.9873-1.085,3.4854v0.7686c0,1.4976,0.394,2.6626,1.1812,3.4951c0.7876,0.8325,1.8784,1.248,3.2744,1.248
            c1.3188,0,2.439-0.396,3.3613-1.1909l-1.0176-1.6128c-0.6538,0.4736-1.377,0.7109-2.1709,0.7109
            c-0.6787,0-1.1875-0.1792-1.5264-0.5381c-0.3394-0.3579-0.5405-0.9277-0.605-1.709h5.4731V8.1997
            c0-1.5239-0.3428-2.6987-1.0273-3.5244C69.3838,3.8491,68.4204,3.436,67.1787,3.436 M65.6035,7.7383
            c0.0645-1.5361,0.582-2.3047,1.5557-2.3047c0.499,0,0.874,0.189,1.1235,0.5664c0.2495,0.3784,0.3936,0.958,0.4326,1.7383H65.6035
            z"/>
        <path clip-path="url(#SVGID_2_)" d="M58.5938,3.4751c-1.1392,0-2.0034,0.5635-2.5928,1.6895V-0.001h-2.5156v13.4434h2.5156
            V6.7207c0.1797-0.3203,0.4004-0.5767,0.6626-0.7681c0.2627-0.1924,0.5605-0.2886,0.8931-0.2886
            c0.4614,0,0.7974,0.1572,1.0083,0.4712c0.2114,0.314,0.3174,0.7778,0.3174,1.3916v5.9155h2.5151V7.2197
            c0-1.1782-0.2495-2.0962-0.7485-2.7559C60.1499,3.8047,59.4644,3.4751,58.5938,3.4751"/>
        <path clip-path="url(#SVGID_2_)" d="M52.1797,12.3477l-1.2285-1.5752c-0.2437,0.2437-0.5,0.4224-0.7695,0.5381
            c-0.2681,0.1152-0.5635,0.1729-0.8828,0.1729c-0.627,0-1.1172-0.2119-1.4692-0.6343c-0.3516-0.4224-0.5283-1.0811-0.5283-1.9775
            V8.1987c0-0.8569,0.1729-1.5,0.5186-1.9297c0.3457-0.4287,0.8267-0.6431,1.4404-0.6431c0.6147,0,1.1465,0.2427,1.5938,0.7295
            l1.2295-1.6519c-0.3457-0.3838-0.7812-0.6914-1.3052-0.9219c-0.5259-0.23-1.1274-0.3457-1.8057-0.3457
            c-0.8325,0-1.562,0.186-2.1899,0.5576c-0.627,0.3711-1.1167,0.9116-1.4688,1.623c-0.3525,0.71-0.5278,1.5591-0.5278,2.5439
            v0.7686c0,1.5107,0.3799,2.6792,1.1421,3.5049c0.7622,0.8252,1.7896,1.2383,3.0825,1.2383
            C50.3677,13.6724,51.4238,13.2305,52.1797,12.3477"/>
        <path clip-path="url(#SVGID_2_)" d="M85.6167,5.0884V4.7041c0-1.2935-0.4131-2.2725-1.2383-2.938
            c-0.8257-0.666-1.9751-0.999-3.4478-0.999h-3.9751v12.6753h2.6118V9.0444h1.3633c1.4727,0,2.6221-0.3296,3.4478-0.9888
            C85.2036,7.3965,85.6167,6.4067,85.6167,5.0884 M83.0054,5.0688c0,1.1909-0.6787,1.7861-2.0356,1.7861h-1.4023V2.9565h1.4023
            c0.6655,0,1.1714,0.144,1.5171,0.4321s0.5186,0.7524,0.5186,1.3921V5.0688z"/>
        <path clip-path="url(#SVGID_2_)" d="M155.0942,8.4106h2.3428v0.1152c0,0.9087-0.1914,1.6133-0.5752,2.1128
            c-0.3848,0.499-0.9541,0.7485-1.71,0.7485c-0.8203,0-1.4277-0.314-1.8242-0.9409s-0.5957-1.5811-0.5957-2.8613V6.6245
            c0-2.5356,0.8838-3.8027,2.6504-3.8027c0.9473,0,1.7549,0.3711,2.4199,1.1143l1.5361-1.7095
            c-0.9863-1.165-2.3369-1.7471-4.0518-1.7471c-1.0508,0-1.9658,0.2334-2.7471,0.7002c-0.7812,0.4673-1.3828,1.1553-1.8047,2.0645
            c-0.4229,0.9097-0.6338,2.0039-0.6338,3.2847v1.1514c0,1.9468,0.4385,3.4409,1.3154,4.4854
            c0.877,1.043,2.1221,1.5645,3.7354,1.5645c1.498,0,2.6787-0.4639,3.543-1.3916c0.8652-0.9292,1.2969-2.2314,1.2969-3.9082V6.144
            h-4.8975V8.4106z"/>
        <path clip-path="url(#SVGID_2_)" d="M165.0132,4.2817c-0.3906,0.4736-0.6934,1.1006-0.9121,1.8818V3.6665h-2.3613v9.7759h2.5156
            V7.354c0.2041-0.3706,0.502-0.6787,0.8926-0.9214c0.3906-0.2432,0.8359-0.3652,1.335-0.3652c0.166,0,0.3652,0.0127,0.5957,0.0391
            V3.6289c-0.2061-0.0386-0.3975-0.0581-0.5762-0.0581C165.8999,3.5708,165.4038,3.8071,165.0132,4.2817"/>
        <path clip-path="url(#SVGID_2_)" d="M176.2192,8.103c0-1.4722-0.3672-2.6187-1.1035-3.4375
            c-0.7373-0.8193-1.7646-1.229-3.083-1.229c-1.332,0-2.3652,0.4097-3.1016,1.229c-0.7363,0.8188-1.1035,1.9653-1.1035,3.4375
            v0.9219c0,1.4727,0.3672,2.6187,1.1035,3.438s1.7637,1.229,3.083,1.229c1.3311,0,2.3643-0.4097,3.1016-1.229
            c0.7363-0.8193,1.1035-1.9653,1.1035-3.438V8.103z M173.7036,8.9673c0,0.8706-0.1406,1.5107-0.4229,1.9204
            c-0.2812,0.4097-0.7041,0.6152-1.2666,0.6152c-0.5518,0-0.9678-0.2056-1.249-0.6152s-0.4229-1.0498-0.4229-1.9204V8.1606
            c0-0.8706,0.1416-1.5112,0.4229-1.9204c0.2812-0.4102,0.7041-0.6147,1.2676-0.6147c0.5498,0,0.9668,0.2046,1.248,0.6147
            c0.2822,0.4092,0.4229,1.0498,0.4229,1.9204V8.9673z"/>
        <path clip-path="url(#SVGID_2_)" d="M183.1528,10.3882c-0.1797,0.3203-0.4072,0.5762-0.6826,0.7681
            c-0.2744,0.1929-0.5791,0.2886-0.9111,0.2886c-0.4238,0-0.7246-0.1445-0.9033-0.4321c-0.1797-0.2886-0.2695-0.7329-0.2695-1.3345
            V3.6665h-2.5146v6.2031c0,1.2549,0.2363,2.1963,0.71,2.8232c0.4736,0.6274,1.1455,0.9409,2.0166,0.9409
            c1.2031,0,2.1055-0.6719,2.708-2.0161v1.8247h2.3623V3.6665h-2.5156V10.3882z"/>
        <path clip-path="url(#SVGID_2_)" d="M195.1743,4.6943c-0.5508-0.813-1.3447-1.2192-2.3809-1.2192
            c-0.6797,0-1.2422,0.1953-1.6904,0.5859c-0.4482,0.3901-0.7744,0.918-0.9795,1.584V3.6665h-2.3623v13.4248h2.5166v-5.0889
            c0.2295,0.4858,0.5537,0.8799,0.9697,1.1807s0.9248,0.4517,1.5264,0.4517c1.0371,0,1.834-0.4072,2.3906-1.2202
            c0.5576-0.813,0.8359-1.9619,0.8359-3.4473V8.1611C196.0005,6.6626,195.7251,5.5073,195.1743,4.6943 M193.4839,8.9102
            c0,0.895-0.1377,1.5425-0.4121,1.9395c-0.2754,0.3965-0.6689,0.5952-1.1807,0.5952c-0.3457,0-0.6602-0.0996-0.9414-0.2979
            c-0.2822-0.1982-0.5059-0.4512-0.6719-0.7588v-3.668c0.1787-0.3071,0.4062-0.5601,0.6807-0.7583
            c0.2754-0.1987,0.5869-0.2974,0.9326-0.2974c1.0615,0,1.5928,0.8511,1.5928,2.5542V8.9102z"/>
    </g>
</svg>